<svg xmlns="http://www.w3.org/2000/svg" viewBox="0 0 46.4 46.4"><defs><style>.cls-1,.cls-3{fill:#161815;isolation:isolate;}.cls-1{opacity:0.15;}.cls-2{opacity:0.5;}.cls-3{opacity:0.8;}</style></defs><g id="Layer_2" data-name="Layer 2"><g id="Layer_1-2" data-name="Layer 1"><path class="cls-1" d="M23.2,46.4h0A23.22,23.22,0,0,1,0,23.2H0A23.22,23.22,0,0,1,23.2,0h0A23.22,23.22,0,0,1,46.4,23.2h0A23.22,23.22,0,0,1,23.2,46.4Z"/><g class="cls-2"><path class="cls-3" d="M9.5,27.2h5c.9,0,1.4.4,1.5,1.1a1.25,1.25,0,0,1-1.4,1.5H7.4a1.54,1.54,0,0,1-1.6-.9A1.71,1.71,0,0,1,6.2,27c1.8-2.3,3.6-4.5,5.4-6.8.1-.1.2-.3.3-.4-.1-.2-.3-.1-.4-.1H7.7a2.77,2.77,0,0,1-.9-.1,1.11,1.11,0,0,1-.9-1.2,1.18,1.18,0,0,1,.9-1.2,2.77,2.77,0,0,1,.9-.1h6.2a4.1,4.1,0,0,1,1.1.1,1.3,1.3,0,0,1,.8,1.8,7.07,7.07,0,0,1-1.2,1.8c-1.5,1.9-3,3.9-4.6,5.8C9.8,26.8,9.7,27,9.5,27.2Z"/><path class="cls-3" d="M23,21.1a1.89,1.89,0,0,1,1-.8,1.42,1.42,0,0,1,1.8,1.3v7a1.38,1.38,0,0,1-1,1.3,1.29,1.29,0,0,1-1.6-.5c-.2-.2-.3-.3-.6-.1a3.44,3.44,0,0,1-3.5.6A4.47,4.47,0,0,1,16,25.7a4.84,4.84,0,0,1,2.4-5A3.79,3.79,0,0,1,23,21.1Zm-4.1,4.3a2.18,2.18,0,0,0,.5,1.4,1.87,1.87,0,0,0,3,0,3.07,3.07,0,0,0,0-3.2,1.51,1.51,0,0,0-1.4-.7C19.7,22.7,18.9,23.7,18.9,25.4Z"/><path class="cls-3" d="M31,25.4a4.91,4.91,0,1,1,9.8-.5,4.87,4.87,0,0,1-4.5,5.3A4.76,4.76,0,0,1,31,25.4Zm2.9-.3a2.35,2.35,0,0,0,.5,1.6,1.88,1.88,0,0,0,3,0,2.7,2.7,0,0,0,0-3.2,1.62,1.62,0,0,0-1.4-.7A2.05,2.05,0,0,0,33.9,25.1Z"/><path class="cls-3" d="M30,23.1v5.4A1.54,1.54,0,0,1,28.1,30a1.45,1.45,0,0,1-1-1.5V17.7a1.39,1.39,0,0,1,1.4-1.5A1.42,1.42,0,0,1,30,17.7Z"/></g></g></g></svg>